<mxfile host="app.diagrams.net" modified="2023-04-27T08:01:16.990Z" agent="Mozilla/5.0 (Windows NT 10.0; Win64; x64) AppleWebKit/537.36 (KHTML, like Gecko) Chrome/112.0.0.0 Safari/537.36" etag="MUYDKw8CkQ5ZW7lZNqN9" version="21.2.2" type="device">
  <diagram name="Page-1" id="b-2SWCQ-DJqWMEEKV22X">
    <mxGraphModel dx="1105" dy="569" grid="1" gridSize="10" guides="1" tooltips="1" connect="1" arrows="1" fold="1" page="1" pageScale="1" pageWidth="1200" pageHeight="1920" math="0" shadow="0">
      <root>
        <mxCell id="0" />
        <mxCell id="1" parent="0" />
        <mxCell id="pktKvAscEAZRkxxUJ6Ln-1" value="ATMega32U4" style="whiteSpace=wrap;html=1;aspect=fixed;fillColor=#bac8d3;strokeColor=#23445d;fontSize=13;" parent="1" vertex="1">
          <mxGeometry x="620" y="380" width="80" height="80" as="geometry" />
        </mxCell>
        <mxCell id="IVwTAVGK3g3AQoTaVPfq-18" value="+5V" style="edgeStyle=orthogonalEdgeStyle;rounded=0;orthogonalLoop=1;jettySize=auto;html=1;exitX=1;exitY=0.75;exitDx=0;exitDy=0;entryX=0;entryY=0.5;entryDx=0;entryDy=0;fontSize=13;strokeWidth=2;" edge="1" parent="1" source="wa-zx6_5OYw6GmYuSM76-1" target="wa-zx6_5OYw6GmYuSM76-3">
          <mxGeometry relative="1" as="geometry" />
        </mxCell>
        <mxCell id="IVwTAVGK3g3AQoTaVPfq-19" value="USB" style="edgeStyle=orthogonalEdgeStyle;rounded=0;orthogonalLoop=1;jettySize=auto;html=1;exitX=1;exitY=0.25;exitDx=0;exitDy=0;entryX=0;entryY=0.25;entryDx=0;entryDy=0;strokeWidth=2;fontSize=13;" edge="1" parent="1" source="wa-zx6_5OYw6GmYuSM76-1" target="pktKvAscEAZRkxxUJ6Ln-1">
          <mxGeometry relative="1" as="geometry" />
        </mxCell>
        <mxCell id="wa-zx6_5OYw6GmYuSM76-1" value="USB-C connector&lt;br style=&quot;font-size: 13px;&quot;&gt;(male)" style="rounded=0;whiteSpace=wrap;html=1;fillColor=#bac8d3;strokeColor=#23445d;fontSize=13;" parent="1" vertex="1">
          <mxGeometry x="100" y="380" width="120" height="80" as="geometry" />
        </mxCell>
        <mxCell id="IVwTAVGK3g3AQoTaVPfq-23" style="edgeStyle=orthogonalEdgeStyle;rounded=0;orthogonalLoop=1;jettySize=auto;html=1;entryX=0;entryY=0.5;entryDx=0;entryDy=0;strokeWidth=2;fontSize=13;" edge="1" parent="1" target="IVwTAVGK3g3AQoTaVPfq-22">
          <mxGeometry relative="1" as="geometry">
            <mxPoint x="490" y="490" as="sourcePoint" />
            <Array as="points">
              <mxPoint x="490" y="490" />
              <mxPoint x="490" y="570" />
            </Array>
          </mxGeometry>
        </mxCell>
        <mxCell id="wa-zx6_5OYw6GmYuSM76-3" value="Polyfuse" style="rounded=0;whiteSpace=wrap;html=1;fillColor=#bac8d3;strokeColor=#23445d;fontSize=13;" parent="1" vertex="1">
          <mxGeometry x="280" y="460" width="80" height="60" as="geometry" />
        </mxCell>
        <mxCell id="wa-zx6_5OYw6GmYuSM76-9" value="CLK" style="edgeStyle=orthogonalEdgeStyle;rounded=0;orthogonalLoop=1;jettySize=auto;html=1;startArrow=none;startFill=0;endArrow=classic;endFill=1;strokeWidth=2;entryX=0.5;entryY=0;entryDx=0;entryDy=0;fontSize=13;" parent="1" source="wa-zx6_5OYw6GmYuSM76-10" target="pktKvAscEAZRkxxUJ6Ln-1" edge="1">
          <mxGeometry relative="1" as="geometry">
            <mxPoint x="870" y="280" as="targetPoint" />
          </mxGeometry>
        </mxCell>
        <mxCell id="wa-zx6_5OYw6GmYuSM76-10" value="16MHz crystal&lt;br style=&quot;font-size: 13px;&quot;&gt;(LFXTAL071268)" style="rounded=0;whiteSpace=wrap;html=1;fillColor=#bac8d3;strokeColor=#23445d;fontSize=13;" parent="1" vertex="1">
          <mxGeometry x="600" y="240" width="120" height="60" as="geometry" />
        </mxCell>
        <mxCell id="wa-zx6_5OYw6GmYuSM76-11" value="I2C" style="edgeStyle=orthogonalEdgeStyle;rounded=0;orthogonalLoop=1;jettySize=auto;html=1;startArrow=classic;startFill=1;endArrow=classic;endFill=1;strokeWidth=2;exitX=1;exitY=0.5;exitDx=0;exitDy=0;entryX=0;entryY=0.5;entryDx=0;entryDy=0;fontSize=13;" parent="1" source="pktKvAscEAZRkxxUJ6Ln-1" target="wa-zx6_5OYw6GmYuSM76-16" edge="1">
          <mxGeometry relative="1" as="geometry">
            <mxPoint x="760" y="580" as="sourcePoint" />
          </mxGeometry>
        </mxCell>
        <mxCell id="wa-zx6_5OYw6GmYuSM76-12" value="Temp/Humidity/... sensor&lt;br style=&quot;font-size: 13px;&quot;&gt;(BME680)" style="rounded=0;whiteSpace=wrap;html=1;fillColor=#bac8d3;strokeColor=#23445d;fontSize=13;" parent="1" vertex="1">
          <mxGeometry x="980" y="440" width="120" height="60" as="geometry" />
        </mxCell>
        <mxCell id="wa-zx6_5OYw6GmYuSM76-13" value="Display&lt;br style=&quot;font-size: 13px;&quot;&gt;(EA W096016-XALW)" style="rounded=0;whiteSpace=wrap;html=1;fillColor=#bac8d3;strokeColor=#23445d;fontSize=13;" parent="1" vertex="1">
          <mxGeometry x="980" y="320" width="120" height="60" as="geometry" />
        </mxCell>
        <mxCell id="wa-zx6_5OYw6GmYuSM76-14" value="I2C" style="edgeStyle=orthogonalEdgeStyle;rounded=0;orthogonalLoop=1;jettySize=auto;html=1;exitX=1;exitY=0.75;exitDx=0;exitDy=0;entryX=0;entryY=0.5;entryDx=0;entryDy=0;startArrow=classic;startFill=1;endArrow=classic;endFill=1;strokeWidth=2;fontSize=13;" parent="1" source="wa-zx6_5OYw6GmYuSM76-16" target="wa-zx6_5OYw6GmYuSM76-12" edge="1">
          <mxGeometry relative="1" as="geometry" />
        </mxCell>
        <mxCell id="wa-zx6_5OYw6GmYuSM76-15" value="I2C" style="edgeStyle=orthogonalEdgeStyle;rounded=0;orthogonalLoop=1;jettySize=auto;html=1;exitX=1;exitY=0.25;exitDx=0;exitDy=0;entryX=0;entryY=0.5;entryDx=0;entryDy=0;startArrow=classic;startFill=1;endArrow=classic;endFill=1;strokeWidth=2;fontSize=13;" parent="1" source="wa-zx6_5OYw6GmYuSM76-16" target="wa-zx6_5OYw6GmYuSM76-13" edge="1">
          <mxGeometry relative="1" as="geometry" />
        </mxCell>
        <mxCell id="wa-zx6_5OYw6GmYuSM76-16" value="I2C level shifter&lt;br style=&quot;border-color: var(--border-color); font-size: 12px;&quot;&gt;&lt;span style=&quot;font-size: 12px;&quot;&gt;(5V - 3.3V)&lt;/span&gt;&lt;br style=&quot;border-color: var(--border-color); font-size: 12px;&quot;&gt;&lt;span style=&quot;font-size: 12px;&quot;&gt;(TCA9517A)&lt;/span&gt;" style="rounded=0;whiteSpace=wrap;html=1;fillColor=#bac8d3;strokeColor=#23445d;fontSize=13;" parent="1" vertex="1">
          <mxGeometry x="780" y="380" width="120" height="80" as="geometry" />
        </mxCell>
        <mxCell id="IVwTAVGK3g3AQoTaVPfq-24" value="+3.3V" style="edgeStyle=orthogonalEdgeStyle;rounded=0;orthogonalLoop=1;jettySize=auto;html=1;exitX=1;exitY=0.5;exitDx=0;exitDy=0;entryX=0.5;entryY=1;entryDx=0;entryDy=0;fontSize=13;strokeWidth=2;" edge="1" parent="1" source="IVwTAVGK3g3AQoTaVPfq-22" target="wa-zx6_5OYw6GmYuSM76-16">
          <mxGeometry x="0.2503" relative="1" as="geometry">
            <mxPoint as="offset" />
          </mxGeometry>
        </mxCell>
        <mxCell id="IVwTAVGK3g3AQoTaVPfq-22" value="5V to 3.3V converter&lt;br&gt;(LD1117S33TR)" style="rounded=0;whiteSpace=wrap;html=1;fillColor=#bac8d3;strokeColor=#23445d;" vertex="1" parent="1">
          <mxGeometry x="610" y="540" width="100" height="60" as="geometry" />
        </mxCell>
        <mxCell id="IVwTAVGK3g3AQoTaVPfq-21" value="+5V" style="edgeStyle=orthogonalEdgeStyle;rounded=0;orthogonalLoop=1;jettySize=auto;html=1;exitX=1;exitY=0.5;exitDx=0;exitDy=0;entryX=0;entryY=0.75;entryDx=0;entryDy=0;strokeWidth=2;fontSize=13;" edge="1" parent="1" source="wa-zx6_5OYw6GmYuSM76-3" target="pktKvAscEAZRkxxUJ6Ln-1">
          <mxGeometry x="-0.161" relative="1" as="geometry">
            <mxPoint as="offset" />
          </mxGeometry>
        </mxCell>
      </root>
    </mxGraphModel>
  </diagram>
</mxfile>
